#!OML:ASF F:\VICON\USERDATA\INSTALL\rory3\rory3.ASF
:FULLY-SPECIFIED
:DEGREES
153
root 0.21904132031322693 18.23012487063919 41.65502388852801 3.8949774177622514 -2.6077251741332033 -1.7127997132343613
lfemur 20.020787878499565 -3.3871484714607027 -28.066955065496828
ltibia 25.864326233561147
lfoot 17.17329221809867 -6.663851780560428
ltoes -9.24583022187749
rfemur -46.51798659562467 -2.476966596686922 23.44530776506671
rtibia 31.925535524252137
rfoot -3.494349766058815 0.45216002278597944
rtoes -32.33244980417581
lowerback nan -2.1910566660638486 -1.9254146698358263
upperback -2.4387241074592696 -2.9043104418002788 2.918032268037436
thorax -8.263971721668012 -0.8729460842808703 5.24478316649719
lowerneck -20.201268637286923 -2.0430605728630082 -2.6083399831052065
upperneck 15.885169319520017 -2.7108894182748755 2.7151729472670163
head 8.446992440969257 -0.9833307912616429 0.5109281791247599
lclavicle -2.2215640744257796e-14 -1.0222290389591104e-14
lhumerus -41.06549377501676 -16.026312228026054 94.68639255900374
lradius 124.12903300189402
lwrist 32.46990389679614
lhand -23.26419082897378 -1.0302454602138316
lfingers nan
lthumb 2.8080677448461246 28.251893716800083
rclavicle -1.3687750470559644e-14 -2.9759906692928343e-15
rhumerus -69.22929727866591 -1.5784829441680195 -86.94485861695539
rradius 114.76470030942355
rwrist -0.47666648451550486
rhand -19.51808076576111 nan
rfingers nan
rthumb 7.721478014387414 11.79363795379027
154
root 0.3028964332976476 18.195626974295454 42.20669813916154 3.167642493433235 -1.5149627142456195 -0.9340914119837733
lfemur 20.033957733186266 -4.581682104825733 -29.000654324700292
ltibia 28.07258712871729
lfoot 16.20749432938004 -7.943533597609218
ltoes -8.630206621890263
rfemur -44.723485566137256 -4.397549805333345 23.602685486894988
rtibia 28.707685794056758
rfoot -2.9982570971178406 -1.0221330847761614
rtoes -32.36283495580083
lowerback nan -2.390738784820015 -1.6913434559465177
upperback -2.606949563097671 -3.354601158380347 2.7050241483276163
thorax -9.496068443705596 -0.9726341677159154 4.830165853763372
lowerneck -20.393572535409675 -2.282117211734482 -2.8008185415818403
upperneck 16.24090906781731 -2.9744073247829994 2.6968199486997086
head 8.550303369972818 -1.1199874509903185 0.5178502847210945
lclavicle -4.3209851242831715e-14 -4.7495015066320175e-14
lhumerus -41.64886496307024 -16.62148345286113 95.27243119044583
lradius 123.0334823147457
lwrist 32.548698697150144
lhand -23.307292441255814 -1.0749161386353137
lfingers nan
lthumb 2.7860392810835943 28.205222256151227
rclavicle -3.4525082558540684e-14 -4.0167850778325216e-14
rhumerus -69.18249783595306 -2.328637874606324 -86.67526475893271
rradius 114.99571321657622
rwrist 0.23742745439101576
rhand -19.599044252461333 nan
rfingers nan
rthumb 7.635431235908694 11.988814506848701
155
root 0.32523711890665563 18.155920104608736 42.898727460600476 2.8506145555851212 -1.2888974679678096 -1.0955422012394642
lfemur 19.516133850054533 -5.205259027709456 -29.035092863827977
ltibia 30.798074704048652
lfoot 15.084218085114566 -9.702800897310688
ltoes -11.048779443586874
rfemur -43.7633062714727 -5.279570526182622 24.678971034480686
rtibia 26.405708074882135
rfoot -3.0500066155531913 -3.0434868519357545
rtoes -35.90936282015381
lowerback nan -2.270811428720694 -1.3938406337233342
upperback -1.1909141544178121 -2.97547206066277 2.706503719891229
thorax -7.1748631840026835 -0.8114550897346893 4.1563460192619655
lowerneck -21.448326168603337 -2.567330036935019 -2.877259106161458
upperneck 15.582302410289765 -3.302396202984472 2.7080303666505783
head 8.513798063516566 -1.2642950771068169 0.515809032261976
lclavicle -5.6660318317378244e-14 -1.507496198569887e-14
lhumerus -40.352422721760774 -17.6654744662443 95.04388953528127
lradius 121.52368905192056
lwrist 32.598226860520775
lhand -23.341527570915638 -0.9367257980887851
lfingers nan
lthumb 2.7752235893278567 28.36214044471205
rclavicle -4.833349742104888e-14 -7.797146429671383e-15
rhumerus -67.3942619546174 -3.1662576706643613 -86.55731279236569
rradius 115.05494854548677
rwrist 0.9167840459929248
rhand -19.965818302934814 nan
rfingers nan
rthumb 7.271185467629149 11.968356431382498
156
root 0.3441508794621819 18.11630136168966 43.09885759188114 2.4082462207760473 -0.9046311586732636 -0.6068673282544339
lfemur 19.020862238576907 -5.525567194758164 -29.459226578539393
ltibia 33.79620181105945
lfoot 13.991504198894763 -11.398354353868598
ltoes -13.268564831238923
rfemur -42.609506477678316 -6.455585338161293 25.1203889340405
rtibia 25.36886325195053
rfoot -4.420948421691947 -5.155672535846168
rtoes -40.959515745478306
lowerback nan -2.3218829963803516 -1.6371727467604829
upperback -1.0803233352093495 -3.0570850620030017 2.5012025408611716
thorax -7.180663387329381 -0.7542953057938633 4.0060216190443825
lowerneck -20.811710565815 -2.615535652197503 -2.692367462415165
upperneck 15.422759480897017 -3.4067984057529674 2.570499174206483
head 8.406195054857525 -1.3157748810101806 0.4444734625101038
lclavicle -4.550191860869855e-14 -4.9964350590849715e-15
lhumerus -40.86399760898355 -18.190069842692616 95.52053615979419
lradius 120.10209476020552
lwrist 32.42225686324654
lhand -23.726644074732544 -0.8482738832379717
lfingers nan
lthumb 2.399185670047016 28.437851093485907
rclavicle -3.704779203812072e-14 2.4124882170956766e-15
rhumerus -67.10827894600871 -3.7886513278811833 -86.52556479356188
rradius 115.06057496711011
rwrist 0.9683757289817319
rhand -20.14576481972289 nan
rfingers nan
rthumb 7.091202947047655 11.793571531750592
157
root 0.37248787246432724 18.071666936969415 43.600835466348165 2.3863811469335627 -0.7123988312095655 -0.4373716608636342
lfemur 17.574823230386347 -5.77565654295763 -29.528489405987862
ltibia 37.515093030318226
lfoot 13.471175733116139 -12.17562568132707
ltoes -11.800029557836812
rfemur -42.181552469096204 -7.086913890928261 25.582837575240347
rtibia 24.742265437426205
rfoot -3.199484630094381 -7.012730647882753
rtoes -30.16642394962639
lowerback nan -2.2701579382742736 -1.658581735241162
upperback -1.2489480284396286 -3.0036617855794168 2.5133837312263965
thorax -7.598900877482963 -0.6248666924626796 3.8956817403320043
lowerneck -19.018706875274223 -2.321700150071748 -2.473583997029472
upperneck 14.517829182619629 -3.026965351832674 2.257380661673407
head 7.982129278805408 -1.1762103803589699 0.35062143382491817
lclavicle -4.280756790497902e-15 -3.045269340895482e-14
lhumerus -41.52840048701425 -18.379164890295115 96.053859824811
lradius 118.59543344774153
lwrist 32.12396112575565
lhand -23.69624365681426 -0.8172886575449849
lfingers nan
lthumb 2.4148143843540435 28.431999605405878
rclavicle 4.861106474139798e-15 -2.2620784854358597e-14
rhumerus -66.6073481931222 -4.182549495275687 -86.45331391246
rradius 114.88171663266755
rwrist 1.0623125475182729
rhand -20.14416027650694 nan
rfingers nan
rthumb 7.090522118685082 11.744441006515272
158
root 0.44782317927173376 18.03404855944268 44.19717189803412 2.103421315771401 -0.1347057824329081 -0.04338926095875095
lfemur 16.369995080611687 -5.949870756363759 -29.71485369861019
ltibia 41.47439190593361
lfoot 13.336976111309983 -12.948110661566945
ltoes -9.612985924578046
rfemur -40.79161988727826 -8.480349846215434 26.05425096044745
rtibia 24.999456726978913
rfoot -2.9731033159204534 -8.221950593309435
rtoes -30.050407366843295
lowerback nan -2.3740028253730623 -1.5199974026522165
upperback -1.0874524459933133 -3.221813144849288 2.351206919347114
thorax -8.126043227994312 -0.6676072379643283 3.6414285802838853
lowerneck -20.54306737481521 -2.6402781214482154 -2.6789284206600947
upperneck 15.293246794522975 -3.4576705420220843 2.4438730071997963
head 8.356567226166428 -1.325188357570831 0.42541965259777603
lclavicle -2.1554223531798507e-14 -4.453209162347047e-14
lhumerus -41.38125349480754 -18.39512736819715 96.03638153819594
lradius 116.94527518792296
lwrist 31.936568781477423
lhand -23.874453890963007 -0.6833619378676101
lfingers nan
lthumb 2.2446636664197746 28.560620517987886
rclavicle -1.2259002642789568e-14 -3.67647315715811e-14
rhumerus -65.43379181737026 -4.329994174290444 -86.71714240681067
rradius 114.69143775592448
rwrist 0.6006547773923092
rhand -20.358554521805363 nan
rfingers nan
rthumb 6.889143674809832 11.781628888184088
159
root 0.32574227700137537 17.95059973344423 42.93710485194158 2.296138503274447 -0.836259649376937 -1.6011489151239076
lfemur 13.349501549562735 -4.556678076577175 -27.161902533198173
ltibia 45.917952175687226
lfoot 12.793180046533806 -14.059460972992847
ltoes -8.346984158146011
rfemur -40.029416483038254 -7.194256659149326 27.88864036706243
rtibia 25.278586681691124
rfoot -2.230950754496165 -8.931947802494456
rtoes -32.229805978339506
lowerback nan -1.8677695360665685 -0.6105610817754612
upperback -0.5761881009755614 -2.3244371683944163 2.9722953564654038
thorax -6.939773411037224 -0.3360193046647453 3.5554386588567723
lowerneck -21.005922019346556 -3.1076028609486577 -3.070243616486451
upperneck 15.734482456485225 -4.0659060590002785 2.55207299546875
head 8.541914305448909 -1.5665579213503582 0.46433429012311567
lclavicle -4.062620776899044e-14 1.71463392010839e-14
lhumerus -41.09740505102145 -18.62318099646414 96.18177502013587
lradius 114.9735178060437
lwrist 31.65511949856355
lhand -23.83909001980371 -0.7546705107566762
lfingers nan
lthumb 2.265437293705241 28.492325637634647
rclavicle -3.154930559462476e-14 2.487668127114011e-14
rhumerus -64.3414986728352 -4.596126738956258 -86.63812296646097
rradius 114.45642239777634
rwrist -0.170320088145413
rhand -20.570601920942707 nan
rfingers nan
rthumb 6.689297676603683 11.764807718979997
160
root 0.3760961002628572 17.925703826507124 44.087998351370665 1.6751698391899583 -0.4333461540573307 -1.4793696249169912
lfemur 12.081679153488189 -4.013051032285112 -26.599205699103454
ltibia 50.16320823887173
lfoot 13.129962026516507 -13.847931312343622
ltoes -5.460931598466991
rfemur -38.26840886325354 -8.040129563377905 28.147815335909456
rtibia 25.73884621851714
rfoot -1.4993072678408002 -6.854762677898797
rtoes -25.07509637510122
lowerback nan -1.8866737360125656 -0.26293840517317
upperback -0.7090315250798467 -2.1912883897697144 2.947061518673805
thorax -8.00667806523948 -0.23351463112051274 2.9903033039125884
lowerneck -20.00854319287351 -2.9670120545775216 -2.7303510368480297
upperneck 15.883019327827498 -3.8635629046231164 2.2017596527551366
head 8.453711346873025 -1.5094806718713318 0.3222825261299682
lclavicle -3.163779436887465e-14 -1.2667051825004647e-14
lhumerus -41.880689813414776 -18.281085330653873 96.65139970437569
lradius 112.97590438541638
lwrist 31.214670152489823
lhand -23.77623838297792 -0.6367734724382832
lfingers nan
lthumb 2.311505017203075 28.599973979458436
rclavicle -2.236821286483517e-14 -4.911970585411268e-15
rhumerus -63.91558475302153 -4.673562402890775 -86.7466808087266
rradius 114.23033063930106
rwrist -1.6654956015546123
rhand -20.55542527377326 nan
rfingers nan
rthumb 6.700904397653342 11.727991351317801
